<svg xmlns="http://www.w3.org/2000/svg" viewBox="0 0 1600 800"><path fill="#ffb100" d="M486 705.8c-109.3-21.8-223.4-32.2-335.3-19.4C99.5 692.1 49 703 0 719.8V800h843.8c-115.9-33.2-230.8-68.1-347.6-92.2-3.4-.7-6.8-1.3-10.2-2"/><path fill="#ffb800" d="M1600 0H0v719.8C49 703 99.5 692 150.7 686.3c111.9-12.7 226-2.4 335.3 19.4 3.4.7 6.8 1.4 10.2 2 116.8 24 231.7 59 347.6 92.2H1600z"/><path fill="#ffc500" d="M0 0v429.4c55.6-18.4 113.5-27.3 171.4-27.7 102.8-.8 203.2 22.7 299.3 54.5 3 1 5.9 2 8.9 3 183.6 62 365.7 146.1 562.4 192.1 186.7 43.7 376.3 34.4 557.9-12.6V0z"/><path fill="#ffd914" d="M1600 0H0v136.3c62.3-20.9 127.7-27.5 192.2-19.2 93.6 12.1 180.5 47.7 263.3 89.6 2.6 1.3 5.1 2.6 7.7 3.9 158.4 81.1 319.7 170.9 500.3 223.2 210.5 61 430.8 49 636.6-16.6V0z"/><path fill="#ffef3d" d="M1600 0H498c118.1 85.8 243.5 164.5 386.8 216.2 191.8 69.2 400 74.7 595 21.1 40.8-11.2 81.1-25.2 120.3-41.7V0z"/><path fill="#ff6" d="M1315.3 72.4c75.3-12.6 148.9-37.1 216.8-72.4h-723c157.7 71 335.6 101 506.2 72.4"/></svg>